<svg width="165" height="49" viewBox="0 0 165 49" fill="none" xmlns="http://www.w3.org/2000/svg">
<rect width="165" height="49" rx="24.5" fill="#D62C2C"/>
<path d="M41.6484 11C42.1172 11 42.5234 11.1719 42.8672 11.5156C43.2109 11.8594 43.3828 12.2813 43.3828 12.7812V35.7031C43.3828 36.3906 43.1328 36.9844 42.6328 37.4844C42.1328 37.9531 41.5391 38.1875 40.8516 38.1875H40.3828C39.5391 38.1875 38.8672 37.8438 38.3672 37.1562L23.5078 15.6875V36.4531C23.5078 36.9219 23.3359 37.3281 22.9922 37.6719C22.6484 38.0156 22.2266 38.1875 21.7266 38.1875C21.2578 38.1875 20.8516 38.0156 20.5078 37.6719C20.1641 37.3281 19.9922 36.9219 19.9922 36.4531V13.5312C19.9922 12.8438 20.2266 12.25 20.6953 11.75C21.1953 11.25 21.8047 11 22.5234 11H22.9922C23.8047 11 24.5234 11.3906 25.1484 12.1719L39.9141 33.5V12.7812C39.9141 12.3125 40.0859 11.9063 40.4297 11.5625C40.7734 11.1875 41.1797 11 41.6484 11ZM72.6797 35.7031C72.8047 36.0156 72.8672 36.3438 72.8672 36.6875C72.8672 37 72.7109 37.3281 72.3984 37.6719C72.1172 38.0156 71.6328 38.1875 70.9453 38.1875C70.2891 38.1875 69.8047 37.8281 69.4922 37.1094L67.0078 31.1562H53.9297L51.4922 37.1094C51.1797 37.8281 50.6797 38.1875 49.9922 38.1875C49.3359 38.1875 48.8516 38.0156 48.5391 37.6719C48.2578 37.3281 48.1172 37 48.1172 36.6875C48.1172 36.3438 48.1797 36.0156 48.3047 35.7031L58.0547 12.5938C58.4922 11.5313 59.2422 11 60.3047 11H60.6797C61.7109 11 62.4609 11.5313 62.9297 12.5938L72.6797 35.7031ZM65.6953 27.9688L60.4922 15.4531L55.2891 27.9688H65.6953ZM97.9453 35.375C98.2266 35.7188 98.3672 36.125 98.3672 36.5938C98.3672 37.0312 98.2109 37.4062 97.8984 37.7188C97.5859 38.0312 97.1641 38.1875 96.6328 38.1875C96.1016 38.1875 95.6484 37.9688 95.2734 37.5312L85.3828 24.875L81.0234 29.2812V36.4531C81.0234 36.9219 80.8516 37.3281 80.5078 37.6719C80.1641 38.0156 79.7422 38.1875 79.2422 38.1875C78.7734 38.1875 78.3672 38.0156 78.0234 37.6719C77.6797 37.3281 77.5078 36.9219 77.5078 36.4531V12.7812C77.5078 12.3125 77.6797 11.9063 78.0234 11.5625C78.3672 11.1875 78.7734 11 79.2422 11C79.7109 11 80.1172 11.1719 80.4609 11.5156C80.8359 11.8594 81.0234 12.2813 81.0234 12.7812V24.9688L94.1484 11.6562C94.4609 11.25 94.8672 11.0469 95.3672 11.0469C95.8984 11.0156 96.3203 11.1563 96.6328 11.4688C96.9453 11.75 97.1016 12.1406 97.1016 12.6406C97.1016 13.1094 96.9453 13.4687 96.6328 13.7188L87.7734 22.5312L97.9453 35.375ZM120.352 34.7188C120.789 34.7188 121.164 34.8906 121.477 35.2344C121.82 35.5469 121.992 35.9375 121.992 36.4062C121.992 36.8438 121.82 37.2188 121.477 37.5312C121.164 37.8438 120.789 38 120.352 38H104.93C104.461 38 104.055 37.8281 103.711 37.4844C103.367 37.1406 103.195 36.7344 103.195 36.2656V12.9688C103.195 12.5 103.367 12.0938 103.711 11.75C104.055 11.375 104.461 11.1875 104.93 11.1875H120.352C120.789 11.1875 121.164 11.3594 121.477 11.7031C121.82 12.0156 121.992 12.3906 121.992 12.8281C121.992 13.2656 121.82 13.6562 121.477 14C121.164 14.3125 120.789 14.4688 120.352 14.4688H106.711V22.9531H118.945C119.383 22.9531 119.758 23.1094 120.07 23.4219C120.414 23.7344 120.586 24.125 120.586 24.5938C120.586 25.0312 120.43 25.4219 120.117 25.7656C119.805 26.0781 119.414 26.2344 118.945 26.2344H106.711V34.7188H120.352ZM144.398 11.8906C144.773 11.2969 145.242 11 145.805 11C146.398 11 146.852 11.1719 147.164 11.5156C147.477 11.8594 147.633 12.25 147.633 12.6875C147.633 13.125 147.523 13.5 147.305 13.8125L138.117 26.6562V36.4531C138.117 36.9219 137.945 37.3281 137.602 37.6719C137.258 38.0156 136.852 38.1875 136.383 38.1875C135.914 38.1875 135.492 38.0156 135.117 37.6719C134.773 37.3281 134.602 36.9219 134.602 36.4531V26.6562L125.414 13.8125C125.227 13.5 125.133 13.125 125.133 12.6875C125.133 12.25 125.273 11.8594 125.555 11.5156C125.867 11.1719 126.305 11 126.867 11C127.461 11 127.961 11.2969 128.367 11.8906L136.383 23.5625L144.398 11.8906Z" fill="white"/>
</svg>
